<svg width="30" height="30" viewBox="0 0 30 30" fill="none" xmlns="http://www.w3.org/2000/svg">
<path d="M16.1638 10.5907L15.3808 9.80769L19.0896 6.0989H10.6418V4.94505H19.0896L15.3808 1.23626L16.1638 0.453297L21.2325 5.52198L16.1638 10.5907ZM8.5814 30C7.94953 30 7.42068 29.7871 6.99486 29.3613C6.56904 28.9354 6.35612 28.4066 6.35612 27.7747C6.35612 27.1429 6.56904 26.614 6.99486 26.1882C7.42068 25.7624 7.94953 25.5494 8.5814 25.5494C9.21326 25.5494 9.74211 25.7624 10.1679 26.1882C10.5938 26.614 10.8067 27.1429 10.8067 27.7747C10.8067 28.4066 10.5938 28.9354 10.1679 29.3613C9.74211 29.7871 9.21326 30 8.5814 30ZM23.7462 30C23.1144 30 22.5855 29.7871 22.1597 29.3613C21.7339 28.9354 21.521 28.4066 21.521 27.7747C21.521 27.1429 21.7339 26.614 22.1597 26.1882C22.5855 25.7624 23.1144 25.5494 23.7462 25.5494C24.3781 25.5494 24.9069 25.7624 25.3328 26.1882C25.7586 26.614 25.9715 27.1429 25.9715 27.7747C25.9715 28.4066 25.7586 28.9354 25.3328 29.3613C24.9069 29.7871 24.3781 30 23.7462 30ZM0.174805 1.15385V0H3.80118L10.477 14.011H21.2325C21.4797 14.011 21.6995 13.9492 21.8918 13.8255C22.0841 13.7019 22.249 13.5302 22.3863 13.3104L27.9495 3.2967H29.2682L23.3341 14.011C23.1144 14.3681 22.8328 14.6497 22.4894 14.8558C22.146 15.0618 21.7682 15.1648 21.3561 15.1648H9.73524L7.6748 18.956C7.45502 19.2857 7.44816 19.6429 7.6542 20.0275C7.86024 20.4121 8.16931 20.6044 8.5814 20.6044H25.9715V21.7582H8.5814C7.70228 21.7582 7.0498 21.3942 6.62398 20.6662C6.19816 19.9382 6.19129 19.2033 6.60338 18.4615L9.15832 13.9286L3.05942 1.15385H0.174805Z" fill="#474747"/>
</svg>
