<svg width="24" height="30" viewBox="0 0 24 30" fill="none" xmlns="http://www.w3.org/2000/svg">
<path d="M2.63158 10H17.0175V6.49123C17.0175 5.02924 16.5058 3.78655 15.4825 2.76316C14.4591 1.73977 13.2164 1.22807 11.7544 1.22807C10.2924 1.22807 9.04971 1.73977 8.02632 2.76316C7.00292 3.78655 6.49123 5.02924 6.49123 6.49123H5.26316C5.26316 4.67836 5.89181 3.14327 7.14912 1.88596C8.40643 0.628655 9.94152 0 11.7544 0C13.5672 0 15.1023 0.628655 16.3596 1.88596C17.617 3.14327 18.2456 4.67836 18.2456 6.49123V10H20.8772C21.6082 10 22.2295 10.2558 22.7412 10.7675C23.2529 11.2792 23.5088 11.9006 23.5088 12.6316V27.3684C23.5088 28.0994 23.2529 28.7208 22.7412 29.2325C22.2295 29.7442 21.6082 30 20.8772 30H2.63158C1.90058 30 1.27924 29.7442 0.767544 29.2325C0.255848 28.7208 0 28.0994 0 27.3684V12.6316C0 11.9006 0.255848 11.2792 0.767544 10.7675C1.27924 10.2558 1.90058 10 2.63158 10ZM2.63158 28.7719H20.8772C21.2865 28.7719 21.6228 28.6404 21.886 28.3772C22.1491 28.114 22.2807 27.7778 22.2807 27.3684V12.6316C22.2807 12.2222 22.1491 11.886 21.886 11.6228C21.6228 11.3596 21.2865 11.2281 20.8772 11.2281H2.63158C2.22222 11.2281 1.88596 11.3596 1.62281 11.6228C1.35965 11.886 1.22807 12.2222 1.22807 12.6316V27.3684C1.22807 27.7778 1.35965 28.114 1.62281 28.3772C1.88596 28.6404 2.22222 28.7719 2.63158 28.7719ZM11.7544 22.3684C12.4269 22.3684 12.9898 22.1418 13.443 21.6886C13.8962 21.2354 14.1228 20.6725 14.1228 20C14.1228 19.3275 13.8962 18.7646 13.443 18.3114C12.9898 17.8582 12.4269 17.6316 11.7544 17.6316C11.0819 17.6316 10.519 17.8582 10.0658 18.3114C9.61257 18.7646 9.38596 19.3275 9.38596 20C9.38596 20.6725 9.61257 21.2354 10.0658 21.6886C10.519 22.1418 11.0819 22.3684 11.7544 22.3684Z" fill="#474747"/>
</svg>
