<svg width="16" height="30" viewBox="0 0 16 30" fill="none" xmlns="http://www.w3.org/2000/svg">
<path d="M0.136719 0H15.8802V11.9825C15.8802 12.5948 15.7052 13.1706 15.3554 13.7099C15.0055 14.2493 14.539 14.6939 13.956 15.0437L8.18336 18.5423L9.49532 22.7405H14.0434L10.2825 25.3644L11.7694 30L8.00844 27.1137L4.24751 30L5.73439 25.3644L1.97345 22.7405H6.52156L7.83351 18.5423L1.97345 15.1312C1.39036 14.8105 0.938468 14.3659 0.617768 13.7974C0.297069 13.2289 0.136719 12.6239 0.136719 11.9825V0ZM1.36121 1.22449V11.9825C1.36121 12.4198 1.47054 12.8207 1.6892 13.1851C1.90786 13.5496 2.20669 13.8484 2.5857 14.0816L7.39619 16.8805V1.22449H1.36121ZM14.6557 1.22449H8.62068V16.8805L13.4312 14.0816C13.8102 13.8484 14.109 13.5496 14.3277 13.1851C14.5463 12.8207 14.6557 12.4198 14.6557 11.9825V1.22449Z" fill="#474747"/>
</svg>
