<svg width="33" height="30" viewBox="0 0 33 30" fill="none" xmlns="http://www.w3.org/2000/svg">
<path d="M29.2547 8.75776C29.7826 8.75776 30.2252 8.57919 30.5823 8.22205C30.9394 7.86491 31.118 7.42236 31.118 6.89441C31.118 6.36646 30.9394 5.92391 30.5823 5.56677C30.2252 5.20963 29.7826 5.03106 29.2547 5.03106C28.7267 5.03106 28.2842 5.20963 27.927 5.56677C27.5699 5.92391 27.3913 6.36646 27.3913 6.89441C27.3913 7.42236 27.5699 7.86491 27.927 8.22205C28.2842 8.57919 28.7267 8.75776 29.2547 8.75776ZM29.2514 10.0621C28.3529 10.0621 27.6009 9.7596 26.9953 9.15456C26.3897 8.5495 26.087 7.79977 26.087 6.90536C26.087 6.02849 26.3895 5.2795 26.9945 4.65838C27.5996 4.03727 28.3493 3.72671 29.2437 3.72671C30.1206 3.72671 30.8696 4.035 31.4907 4.65158C32.1118 5.26817 32.4224 6.01686 32.4224 6.89767C32.4224 7.79612 32.1141 8.54814 31.4975 9.15373C30.8809 9.75932 30.1322 10.0621 29.2514 10.0621ZM16.2112 6.89441C16.9876 6.89441 17.6475 6.63043 18.191 6.10248C18.7345 5.57453 19.0062 4.90683 19.0062 4.09938C19.0062 3.32298 18.7345 2.66304 18.191 2.11957C17.6475 1.57609 16.9876 1.30435 16.2112 1.30435C15.4037 1.30435 14.736 1.57609 14.2081 2.11957C13.6801 2.66304 13.4161 3.32298 13.4161 4.09938C13.4161 4.90683 13.6801 5.57453 14.2081 6.10248C14.736 6.63043 15.4037 6.89441 16.2112 6.89441ZM16.214 8.19876C15.063 8.19876 14.0916 7.80491 13.2997 7.0172C12.5078 6.22953 12.1118 5.26194 12.1118 4.11443C12.1118 2.98638 12.5057 2.01863 13.2934 1.21118C14.081 0.403727 15.0486 0 16.1961 0C17.3242 0 18.2919 0.399908 19.0994 1.19972C19.9068 1.99954 20.3106 2.96516 20.3106 4.09658C20.3106 5.24752 19.9106 6.21894 19.1108 7.01087C18.311 7.80279 17.3454 8.19876 16.214 8.19876ZM7.45342 16.3509C7.45342 17.5311 7.98137 18.8043 9.03727 20.1708C10.0932 21.5373 12.1894 23.6491 15.3261 26.5062L16.2112 27.2981L17.1894 26.3665C20.1087 23.7267 22.1351 21.6859 23.2686 20.244C24.4022 18.8021 24.9689 17.5044 24.9689 16.3509C24.9689 15.273 24.6106 14.3591 23.8939 13.6092C23.1772 12.8594 22.2934 12.4845 21.2422 12.4845C20.6179 12.4845 20.0271 12.6242 19.4697 12.9037C18.9122 13.1832 18.4317 13.5559 18.0279 14.0217L16.2112 16.2112L14.3478 14.0217C13.9441 13.5559 13.4705 13.1832 12.927 12.9037C12.3835 12.6242 11.8012 12.4845 11.1801 12.4845C10.0812 12.4845 9.18537 12.8594 8.49261 13.6092C7.79981 14.3591 7.45342 15.273 7.45342 16.3509ZM6.14907 16.3509C6.14907 15.0155 6.65373 13.8199 7.66304 12.764C8.67236 11.7081 9.84472 11.1801 11.1801 11.1801C12.0807 11.1801 12.9115 11.3975 13.6724 11.8323C14.4332 12.2671 15.0776 12.8261 15.6056 13.5093L16.2112 14.2081L16.8168 13.4627C17.3758 12.8106 18.0279 12.2671 18.7733 11.8323C19.5186 11.3975 20.3416 11.1801 21.2422 11.1801C22.5466 11.1801 23.7112 11.71 24.736 12.7697C25.7609 13.8293 26.2733 15.0231 26.2733 16.3509C26.2733 17.7484 25.7143 19.1925 24.5963 20.6832C23.4783 22.1739 21.3354 24.3634 18.1677 27.2516L16.2112 29.0683L14.3478 27.3913C11.0559 24.3478 8.86646 22.104 7.7795 20.6599C6.69255 19.2158 6.14907 17.7795 6.14907 16.3509ZM3.1677 8.75776C3.69565 8.75776 4.1382 8.57919 4.49534 8.22205C4.85248 7.86491 5.03106 7.42236 5.03106 6.89441C5.03106 6.36646 4.85248 5.92391 4.49534 5.56677C4.1382 5.20963 3.69565 5.03106 3.1677 5.03106C2.63975 5.03106 2.1972 5.20963 1.84006 5.56677C1.48292 5.92391 1.30435 6.36646 1.30435 6.89441C1.30435 7.42236 1.48292 7.86491 1.84006 8.22205C2.1972 8.57919 2.63975 8.75776 3.1677 8.75776ZM16.3509 30V28.6957H31.118V17.1429C31.118 16.7391 30.9705 16.3898 30.6755 16.0947C30.3804 15.7997 30.0311 15.6522 29.6273 15.6522H25.8075V14.3478H29.6273C30.396 14.3478 31.054 14.6215 31.6013 15.1689C32.1487 15.7162 32.4224 16.3742 32.4224 17.1429V30H16.3509ZM1.30435 28.6957H16.3509V30H0V17.1557C0 16.3707 0.267857 15.7065 0.803571 15.163C1.33929 14.6196 2.00311 14.3478 2.79503 14.3478H6.61491V15.6522H2.79503C2.36025 15.6522 2.00311 15.7997 1.7236 16.0947C1.4441 16.3898 1.30435 16.7391 1.30435 17.1429V28.6957ZM3.16444 10.0621C2.26599 10.0621 1.51398 9.7596 0.908385 9.15456C0.302795 8.5495 0 7.79977 0 6.90536C0 6.02849 0.302515 5.2795 0.907546 4.65838C1.51261 4.03727 2.26234 3.72671 3.15675 3.72671C4.03362 3.72671 4.78261 4.035 5.40373 4.65158C6.02484 5.26817 6.3354 6.01686 6.3354 6.89767C6.3354 7.79612 6.02711 8.54814 5.41053 9.15373C4.79394 9.75932 4.04525 10.0621 3.16444 10.0621Z" fill="#474747"/>
</svg>
